<?xml version="1.0" encoding="UTF-8"?>
<svg xmlns="http://www.w3.org/2000/svg" viewBox="0 0 64 64" enable-background="new 0 0 64 64">
  <rect x="1.000000" y="1.000000" width="1198.000000" height="598.000000" stroke="blue" stroke-width="1"/>
  <circle cx="32.000000" cy="32.000000" r="30.000000" fill="red"/>
  <circle cx="32.000000" cy="32.000000" r="30.000000" fill="red" opacity=".8"/>
  <circle cx="32.000000" cy="32.000000" r="30.000000"/>
  <circle cx="1.000000" cy="2.000000" r="3.000000"/>
  <g fill="#ff717f">
    <circle cx="50.799999" cy="36.000000" r="8.000000" opacity=".8"/>
    <circle cx="13.200000" cy="36.000000" r="8.000000" opacity=".8"/>
  </g>
  <g fill="#664e27">
    <path d=""/>
    <path d="m28.5 26.9c-1.9-5.1-4.7-7.7-7.5-7.7s-5.6 2.6-7.5 7.7c-.2.5.8 1.4 1.3.9 1.8-1.9 4-2.7 6.2-2.7 2.2 0 4.4.8 6.2 2.7.6.5 1.5-.4 1.3-.9"/>
    <path d="m50.4 26.9c-1.9-5.1-4.7-7.7-7.5-7.7s-5.6 2.6-7.5 7.7c-.2.5.8 1.4 1.3.9 1.8-1.9 4-2.7 6.2-2.7s4.4.8 6.2 2.7c.5.5 1.5-.4 1.3-.9"/>
  </g>
</svg>
