<?xml version="1.0" encoding="UTF-8"?>
<svg xmlns="http://www.w3.org/2000/svg" viewBox="0 0 64 64" enable-background="new 0 0 64 64">
  <title>dsd</title>
  <desc>dsssd</desc>
  <rect x="1.000000cm" y="1.000000cm" width="1.000000cm" height="1.000000cm" fill="none" stroke="blue" stroke-width="1"/>
  <rect x="1.000000cm" y="1.000000cm" width="19.000000cm" height="15.000000cm" fill="none" stroke="blue" stroke-width="1"/>
  <circle cx="0.000000cm" cy="0.000000cm" r="0.000000cm" fill="#ffdd67"/>
  <circle cx="0.000000cm" cy="0.000000cm" r="0.000000cm" opacity=".8"/>
  <circle cx="13.200000cm" cy="36.000000cm" r="8.000000cm" opacity=".8"/>
  <circle cx="13.200000" cy="36.000000" r="8.000000" opacity=".8"/>
  <circle cx="13.200000" cy="36.000000" r="8.000000" opacity=".8"/>
  <circle cx="13.200000" cy="36.000000" r="8.000000" opacity=".8"/>
  <circle cx="13.200000" cy="36.000000" r="8.000000" opacity=".8"/>
  <circle cx="13.200000" cy="36.000000" r="8.000000" opacity=".8"/>
  <circle cx="13.200000" cy="36.000000" r="8.000000" opacity=".8"/>
  <circle cx="13.200000" cy="36.000000" r="8.000000" opacity=".8"/>
  <circle cx="13.200000" cy="36.000000" r="8.000000" opacity=".8"/>
  <circle cx="13.200000" cy="36.000000" r="8.000000" opacity=".8"/>
  <circle cx="13.200000" cy="36.000000" r="8.000000" opacity=".8"/>
  <circle cx="13.200000" cy="36.000000" r="8.000000" opacity=".8"/>
  <path d="m44.6 40.3c-8.1 5.7-17.1 5.6-25.2 0-1-.7-1.8.5-1.2 1.6 2.5 4 7.4 7.7 13.8 7.7s11.3-3.6 13.8-7.7c.6-1.1-.2-2.3-1.2-1.6"/>
  <g fill="#ff717f">
    <circle cx="50.799999" cy="36.000000" r="8.000000" opacity=".8"/>
    <circle cx="13.200000" cy="36.000000" r="8.000000" opacity=".8"/>
  </g>
  <g fill="#ff717f"/>
  <g fill="#664e27">
    <path d="m28.5 26.9c-1.9-5.1-4.7-7.7-7.5-7.7s-5.6 2.6-7.5 7.7c-.2.5.8 1.4 1.3.9 1.8-1.9 4-2.7 6.2-2.7 2.2 0 4.4.8 6.2 2.7.6.5 1.5-.4 1.3-.9"/>
    <path d="m50.4 26.9c-1.9-5.1-4.7-7.7-7.5-7.7s-5.6 2.6-7.5 7.7c-.2.5.8 1.4 1.3.9 1.8-1.9 4-2.7 6.2-2.7s4.4.8 6.2 2.7c.5.5 1.5-.4 1.3-.9"/>
  </g>
</svg>
